<?xml version="1.0" encoding="iso-8859-1"?>
<!-- Generator: Adobe Illustrator 16.0.0, SVG Export Plug-In . SVG Version: 6.00 Build 0)  -->
<!DOCTYPE svg PUBLIC "-//W3C//DTD SVG 1.1//EN" "http://www.w3.org/Graphics/SVG/1.1/DTD/svg11.dtd">

<svg class="frappe-chart chart" width="927" height="250"><defs></defs><text class="title" x="20" y="10" dy="12px" font-size="12px" fill="#666666" text-anchor="start">Fireball/Bolide Events - Yearly (reported)</text><g class="line-chart chart-draw-area" transform="translate(50, 50)"><g class="y axis" transform=""><g transform="translate(0, 160)" stroke-opacity="1"><line class="line-horizontal " x1="-6" x2="853" y1="0" y2="0" style="stroke: rgb(218, 218, 218);"></line><text x="-10" y="0" dy="3px" font-size="10px" text-anchor="end">0</text></g><g transform="translate(0, 120)" stroke-opacity="1"><line class="line-horizontal " x1="-6" x2="853" y1="0" y2="0" style="stroke: rgb(218, 218, 218);"></line><text x="-10" y="0" dy="3px" font-size="10px" text-anchor="end">500</text></g><g transform="translate(0, 80)" stroke-opacity="1"><line class="line-horizontal " x1="-6" x2="853" y1="0" y2="0" style="stroke: rgb(218, 218, 218);"></line><text x="-10" y="0" dy="3px" font-size="10px" text-anchor="end">1000</text></g><g transform="translate(0, 40)" stroke-opacity="1"><line class="line-horizontal " x1="-6" x2="853" y1="0" y2="0" style="stroke: rgb(218, 218, 218);"></line><text x="-10" y="0" dy="3px" font-size="10px" text-anchor="end">1500</text></g><g transform="translate(0, 0)" stroke-opacity="1"><line class="line-horizontal " x1="-6" x2="853" y1="0" y2="0" style="stroke: rgb(218, 218, 218);"></line><text x="-10" y="0" dy="3px" font-size="10px" text-anchor="end">2000</text></g></g><g class="x axis" transform=""><g transform="translate(38.5, 0)"><line class="line-vertical " x1="0" x2="0" y1="166" y2="-6" style="stroke: rgb(218, 218, 218);"></line><text x="0" y="170" dy="10px" font-size="10px" text-anchor="middle">2007</text></g><g transform="translate(115.5, 0)"><line class="line-vertical " x1="0" x2="0" y1="166" y2="-6" style="stroke: rgb(218, 218, 218);"></line><text x="0" y="170" dy="10px" font-size="10px" text-anchor="middle">2008</text></g><g transform="translate(192.5, 0)"><line class="line-vertical " x1="0" x2="0" y1="166" y2="-6" style="stroke: rgb(218, 218, 218);"></line><text x="0" y="170" dy="10px" font-size="10px" text-anchor="middle">2009</text></g><g transform="translate(269.5, 0)"><line class="line-vertical " x1="0" x2="0" y1="166" y2="-6" style="stroke: rgb(218, 218, 218);"></line><text x="0" y="170" dy="10px" font-size="10px" text-anchor="middle">2010</text></g><g transform="translate(346.5, 0)"><line class="line-vertical " x1="0" x2="0" y1="166" y2="-6" style="stroke: rgb(218, 218, 218);"></line><text x="0" y="170" dy="10px" font-size="10px" text-anchor="middle">2011</text></g><g transform="translate(423.5, 0)"><line class="line-vertical " x1="0" x2="0" y1="166" y2="-6" style="stroke: rgb(218, 218, 218);"></line><text x="0" y="170" dy="10px" font-size="10px" text-anchor="middle">2012</text></g><g transform="translate(500.5, 0)"><line class="line-vertical " x1="0" x2="0" y1="166" y2="-6" style="stroke: rgb(218, 218, 218);"></line><text x="0" y="170" dy="10px" font-size="10px" text-anchor="middle">2013</text></g><g transform="translate(577.5, 0)"><line class="line-vertical " x1="0" x2="0" y1="166" y2="-6" style="stroke: rgb(218, 218, 218);"></line><text x="0" y="170" dy="10px" font-size="10px" text-anchor="middle">2014</text></g><g transform="translate(654.5, 0)"><line class="line-vertical " x1="0" x2="0" y1="166" y2="-6" style="stroke: rgb(218, 218, 218);"></line><text x="0" y="170" dy="10px" font-size="10px" text-anchor="middle">2015</text></g><g transform="translate(731.5, 0)"><line class="line-vertical " x1="0" x2="0" y1="166" y2="-6" style="stroke: rgb(218, 218, 218);"></line><text x="0" y="170" dy="10px" font-size="10px" text-anchor="middle">2016</text></g><g transform="translate(808.5, 0)"><line class="line-vertical " x1="0" x2="0" y1="166" y2="-6" style="stroke: rgb(218, 218, 218);"></line><text x="0" y="170" dy="10px" font-size="10px" text-anchor="middle">2017</text></g></g><g class="dataset-units dataset-line dataset-0" transform=""><path class="line-graph-path" d="M38.5,147.84L115.5,142.24L192.5,144.08L269.5,137.04L346.5,117.28L423.5,103.28L500.5,65.68L577.5,59.52L654.5,29.44L731.5,11.52L808.5,12" style="stroke: rgb(40, 167, 69); fill: none; stroke-width: 2;"></path><g data-point-index="0" transform="translate(38.5, 147.84)"><circle style="fill: #28a745" data-point-index="0" cx="0" cy="0" r="8"></circle><text class="data-point-value" x="0" y="0" dy="-13px" font-size="10px" text-anchor="middle">152</text></g><g data-point-index="1" transform="translate(115.5, 142.24)"><circle style="fill: #28a745" data-point-index="1" cx="0" cy="0" r="8"></circle><text class="data-point-value" x="0" y="0" dy="-13px" font-size="10px" text-anchor="middle">222</text></g><g data-point-index="2" transform="translate(192.5, 144.08)"><circle style="fill: #28a745" data-point-index="2" cx="0" cy="0" r="8"></circle><text class="data-point-value" x="0" y="0" dy="-13px" font-size="10px" text-anchor="middle">199</text></g><g data-point-index="3" transform="translate(269.5, 137.04)"><circle style="fill: #28a745" data-point-index="3" cx="0" cy="0" r="8"></circle><text class="data-point-value" x="0" y="0" dy="-13px" font-size="10px" text-anchor="middle">287</text></g><g data-point-index="4" transform="translate(346.5, 117.28)"><circle style="fill: #28a745" data-point-index="4" cx="0" cy="0" r="8"></circle><text class="data-point-value" x="0" y="0" dy="-13px" font-size="10px" text-anchor="middle">534</text></g><g data-point-index="5" transform="translate(423.5, 103.28)"><circle style="fill: #28a745" data-point-index="5" cx="0" cy="0" r="8"></circle><text class="data-point-value" x="0" y="0" dy="-13px" font-size="10px" text-anchor="middle">709</text></g><g data-point-index="6" transform="translate(500.5, 65.68)"><circle style="fill: #28a745" data-point-index="6" cx="0" cy="0" r="8"></circle><text class="data-point-value" x="0" y="0" dy="-13px" font-size="10px" text-anchor="middle">1179</text></g><g data-point-index="7" transform="translate(577.5, 59.52)"><circle style="fill: #28a745" data-point-index="7" cx="0" cy="0" r="8"></circle><text class="data-point-value" x="0" y="0" dy="-13px" font-size="10px" text-anchor="middle">1256</text></g><g data-point-index="8" transform="translate(654.5, 29.44)"><circle style="fill: #28a745" data-point-index="8" cx="0" cy="0" r="8"></circle><text class="data-point-value" x="0" y="0" dy="-13px" font-size="10px" text-anchor="middle">1632</text></g><g data-point-index="9" transform="translate(731.5, 11.52)"><circle style="fill: #28a745" data-point-index="9" cx="0" cy="0" r="8"></circle><text class="data-point-value" x="0" y="0" dy="-13px" font-size="10px" text-anchor="middle">1856</text></g><g data-point-index="10" transform="translate(808.5, 12)"><circle style="fill: #28a745" data-point-index="10" cx="0" cy="0" r="8"></circle><text class="data-point-value" x="0" y="0" dy="-13px" font-size="10px" text-anchor="middle">1850</text></g></g><g class="y-markers" transform=""><g transform="translate(0, 64)" stroke-opacity="1"><line class="line-horizontal dashed" x1="0" x2="847" y1="0" y2="0" style="stroke: rgb(218, 218, 218);"></line><text x="-4" y="0" dy="3px" font-size="10px" text-anchor="end"></text><text class="chart-label" x="4" y="0" dy="-5px" font-size="10px" text-anchor="start">Average 100 reports/month</text></g></g><circle style="fill: rgb(40, 167, 69); opacity: 0.6;" data-point-index="10" cx="0" cy="0" r="12" fill="null" transform="translate(808.5, 12)"></circle></g></svg>